<?xml version="1.0" encoding="UTF-8" standalone="no"?>
<!-- Created with Inkscape (http://www.inkscape.org/) -->

<svg
   width="25.405642mm"
   height="25.432541mm"
   viewBox="0 0 25.405642 25.432541"
   version="1.1"
   id="svg541"
   inkscape:version="1.1.2 (0a00cf5339, 2022-02-04)"
   sodipodi:docname="drawing.svg"
   xmlns:inkscape="http://www.inkscape.org/namespaces/inkscape"
   xmlns:sodipodi="http://sodipodi.sourceforge.net/DTD/sodipodi-0.dtd"
   xmlns="http://www.w3.org/2000/svg"
   xmlns:svg="http://www.w3.org/2000/svg">
  <sodipodi:namedview
     id="namedview543"
     pagecolor="#ffffff"
     bordercolor="#666666"
     borderopacity="1.0"
     inkscape:pageshadow="2"
     inkscape:pageopacity="0.0"
     inkscape:pagecheckerboard="0"
     inkscape:document-units="mm"
     showgrid="false"
     inkscape:zoom="5.6568543"
     inkscape:cx="49.939416"
     inkscape:cy="22.097087"
     inkscape:window-width="1910"
     inkscape:window-height="1563"
     inkscape:window-x="1922"
     inkscape:window-y="4"
     inkscape:window-maximized="1"
     inkscape:current-layer="layer3"
     fit-margin-top="0"
     fit-margin-left="0"
     fit-margin-right="0"
     fit-margin-bottom="0" />
  <defs
     id="defs538" />
  <g
     inkscape:groupmode="layer"
     id="layer3"
     inkscape:label="Layer 2">
    <rect
       style="fill:#ffffff;stroke-width:0.264583"
       id="rect914"
       width="21.994715"
       height="12.505097"
       x="2.0808361"
       y="5.4243321" />
  </g>
  <g
     inkscape:label="Layer 1"
     inkscape:groupmode="layer"
     id="layer1"
     transform="translate(-3.066879,-4.7704597)">
    <path
       style="fill:#e4e566;stroke-width:0.0846667"
       d="m 8.8488329,15.007659 -0.6985,-0.68709 V 13.0681 c 0,-1.22391 -0.005,-1.258409 -0.219193,-1.512965 -0.192066,-0.228258 -0.2726986,-0.260496 -0.6515338,-0.260496 -0.353831,0 -0.4754628,0.04131 -0.669807,0.227507 L 6.372333,11.749653 v 1.338826 1.338826 h -1.651 -1.651 v -2.916832 c 0,-1.8023525 0.035749,-3.0882624 0.093564,-3.3655002 0.3308861,-1.5867017 1.6894019,-2.9452176 3.2761036,-3.2761036 0.276497,-0.05766 1.5517204,-0.093564 3.3231666,-0.093564 h 2.8744988 v 0.2754842 c 0,0.2507587 0.379954,0.6553808 4.233333,4.5081824 4.178996,4.1783692 4.233332,4.2370492 4.233182,4.5716822 -1.69e-4,0.309467 -0.03324,0.359892 -0.380205,0.579089 -0.209029,0.132058 -0.52809,0.408283 -0.709022,0.613833 -0.321605,0.365363 -0.340575,0.373729 -0.847462,0.373729 -0.510428,0 -0.518493,-0.0037 -0.518493,-0.235161 0,-0.347158 -0.20838,-0.586177 -0.746939,-0.856764 -1.154727,-0.580167 -2.790822,-0.579564 -3.929701,0.0015 -0.194411,0.09918 -0.568169,0.385112 -0.830572,0.635402 l -0.477098,0.455067 h -0.606177 -0.606179 v -0.511848 c 0,-0.430555 -0.03301,-0.544855 -0.207818,-0.719666 -0.171106,-0.171107 -0.291475,-0.207819 -0.681376,-0.207819 -0.403342,0 -0.504343,0.03322 -0.6811821,0.22403 -0.1712293,0.184759 -0.2076238,0.31091 -0.2076238,0.719666 0,0.2726 -0.028575,0.495062 -0.0635,0.494359 -0.034925,-6.88e-4 -0.377825,-0.310467 -0.762,-0.688368 z m 2.4788021,-1.852757 c 0.211166,-0.22041 0.24565,-0.32279 0.24565,-0.729313 0,-0.426064 -0.02709,-0.497117 -0.273478,-0.717264 -0.22963,-0.205174 -0.346493,-0.244353 -0.728856,-0.244353 -0.38566,0 -0.495634,0.03761 -0.7183307,0.245636 -0.2344222,0.218983 -0.262954,0.297777 -0.262954,0.726179 0,0.418239 0.032088,0.512632 0.2474872,0.728031 0.2175125,0.217513 0.3078845,0.247487 0.7461595,0.247487 0.444598,0 0.52531,-0.0278 0.744322,-0.256403 z"
       id="path247" />
    <path
       style="fill:#d25879;stroke-width:0.0846667"
       d="m 6.689833,30.119232 c 0.058208,-0.02349 0.1534583,-0.02349 0.2116666,0 0.058208,0.02349 0.010583,0.0427 -0.1058333,0.0427 -0.1164167,0 -0.1640417,-0.01922 -0.1058333,-0.0427 z m 16.107833,-0.769995 v -0.826066 l -2.370667,-2.369533 -2.370666,-2.369533 v -1.212752 -1.212752 l 0.296333,-0.279479 c 0.253895,-0.239453 0.296333,-0.334385 0.296333,-0.662877 0,-0.332166 -0.0396,-0.418166 -0.296333,-0.643583 -0.475021,-0.417073 -0.42341,-0.694635 0.254,-1.366024 l 0.550333,-0.545441 0.0021,0.463221 c 0.0041,0.925147 0.296261,1.69337 0.898745,2.363477 0.748145,0.832118 1.591308,1.14027 2.989087,1.092428 0.846156,-0.02896 0.948404,-0.05202 1.550467,-0.349571 1.301034,-0.643003 1.925637,-1.761227 1.925637,-3.447447 0,-0.779924 -0.149277,-1.494807 -0.424987,-2.035244 -0.179243,-0.351344 -0.737614,-0.96765 -1.095701,-1.209388 l -0.208392,-0.140657 0.331372,-0.339355 0.331372,-0.339356 h 1.506817 1.506817 v 6.218833 c 0,4.213013 -0.03018,6.363545 -0.09356,6.6675 -0.330886,1.586701 -1.689402,2.945217 -3.276103,3.276103 -0.246772,0.05146 -0.865897,0.09356 -1.375838,0.09356 h -0.927166 z m -18.169044,-0.126432 -0.161289,-0.1905 0.1905,0.161289 c 0.179023,0.151572 0.2290437,0.219711 0.161289,0.219711 -0.016066,0 -0.1017911,-0.08573 -0.1905,-0.1905 z m -0.6773333,-0.677334 -0.161289,-0.1905 0.1905,0.16129 c 0.179023,0.151571 0.2290437,0.21971 0.1612889,0.21971 -0.016066,0 -0.101791,-0.08573 -0.1904999,-0.1905 z m -0.8675872,-2.0955 c 0,-0.116416 0.019217,-0.164041 0.042705,-0.105833 0.023488,0.05821 0.023488,0.153458 0,0.211667 -0.023487,0.05821 -0.042705,0.01058 -0.042705,-0.105834 z M 22.142893,19.959697 c -0.462845,-0.163873 -0.987978,-0.754677 -1.113352,-1.252587 -0.311905,-1.238683 0.169673,-2.358916 1.164937,-2.709842 1.211982,-0.427341 2.360042,0.336317 2.517312,1.67445 0.191533,1.629648 -1.122574,2.800054 -2.568897,2.287979 z"
       id="path245" />
    <path
       style="fill:#67dd44;stroke-width:0.0846667"
       d="m 3.070333,20.226971 v -5.799666 h 1.651 1.651 v 3.413159 3.41316 l 0.2374661,0.227507 c 0.1899071,0.181943 0.3183877,0.227507 0.6415128,0.227507 0.333689,0 0.4471423,-0.0431 0.6515338,-0.247487 l 0.2474872,-0.247487 v -3.400235 c 0,-2.072199 0.03091,-3.389212 0.07914,-3.372012 0.043527,0.01552 0.3864269,0.327755 0.762,0.693849 l 0.6828602,0.665629 v 2.706385 2.706384 l 0.2474873,0.247487 c 0.3366236,0.336623 0.8889636,0.348929 1.2700166,0.02829 l 0.260496,-0.219189 v -2.786473 -2.786474 h 0.620564 0.620565 l -0.260731,0.526043 C 12.177616,16.738061 12.172,16.775901 12.172,17.980181 c 0,1.155782 0.01373,1.260074 0.225248,1.711287 0.123886,0.264272 0.38804,0.657105 0.58701,0.872961 l 0.361763,0.392466 -2.533815,2.534872 -2.5338147,2.534871 H 5.6743621 3.070333 Z m 11.272939,-0.885494 c -0.358538,-0.494947 -0.459033,-0.858418 -0.421414,-1.524175 0.02565,-0.454025 0.08502,-0.658298 0.284284,-0.978121 0.560114,-0.899017 1.7916,-1.198441 2.865589,-0.69674 0.657412,0.307101 1.051968,0.305561 1.349761,-0.0053 0.125129,-0.130606 0.227507,-0.283006 0.227507,-0.338666 0,-0.06724 0.170448,-0.1012 0.508,-0.1012 0.2794,0 0.508,0.01445 0.508,0.0321 0,0.01766 -0.09633,0.242525 -0.214078,0.49971 -0.128038,0.279671 -0.234216,0.700633 -0.264185,1.047398 -0.04945,0.572165 -0.0569,0.586747 -0.566643,1.108956 l -0.516535,0.529167 h -1.354204 -1.354205 l -0.397162,0.39119 -0.397162,0.39119 -0.257553,-0.355541 z"
       id="path243" />
    <path
       style="fill:#832966;stroke-width:0.0846667"
       d="M 6.5473726,30.079211 C 5.496658,29.904921 4.2533492,29.043728 3.7073353,28.112026 3.4292668,27.637538 3.1918859,26.951364 3.1250274,26.428805 l -0.051455,-0.402167 h 2.6024095 2.6024094 l 2.5297947,-2.530848 2.529793,-2.53085 0.390677,0.248368 c 0.68575,0.435957 1.409953,0.603267 2.447156,0.565357 0.759971,-0.02778 0.985707,-0.06966 1.393687,-0.258568 l 0.486834,-0.225424 v 1.244716 1.244716 l 2.370666,2.369533 2.370667,2.369533 v 0.826066 0.826068 l -7.895166,-0.0099 c -4.342342,-0.0054 -8.1021493,-0.04423 -8.3551274,-0.0862 z M 15.558666,20.043068 c -0.261906,-0.05763 -0.665513,-0.216418 -0.787274,-0.309729 -0.08501,-0.06515 -0.02821,-0.167528 0.250461,-0.451477 l 0.360403,-0.367224 h 1.337039 1.337038 v 0.338667 c 0,0.301985 -0.02223,0.338666 -0.205269,0.338666 -0.112898,0 -0.490721,0.1143 -0.839605,0.254 -0.588012,0.235452 -1.015142,0.293399 -1.452793,0.197097 z"
       id="path241" />
    <path
       style="fill:#0a4190;stroke-width:0.0846667"
       d="m 24.490999,14.474656 c -0.604871,-0.329209 -2.390835,-0.387409 -3.077978,-0.100303 l -0.308688,0.128979 V 14.147501 13.79167 L 16.870999,9.558972 C 12.998325,5.6868789 12.637666,5.3025399 12.637666,5.0476908 V 4.769108 l 6.244167,0.024265 6.244166,0.024265 0.508,0.203738 c 1.277256,0.5122549 2.090893,1.3262183 2.589224,2.590262 0.19436,0.4930058 0.201137,0.5935927 0.22963,3.407833 l 0.02936,2.899833 H 26.969456 25.4567 l -0.3307,0.338667 c -0.372193,0.381161 -0.34798,0.372899 -0.635,0.216684 z"
       id="path239" />
    <path
       style="fill:#000000;stroke-width:0.0846667"
       d="M 14.652538,21.634162 C 13.637786,21.300601 12.822704,20.59929 12.398911,19.695101 12.185499,19.239772 12.172,19.137938 12.172,17.983305 c 0,-1.15641 0.01325,-1.255937 0.228252,-1.714724 0.279759,-0.596967 0.943276,-1.314395 1.49167,-1.612868 1.15518,-0.628728 2.817413,-0.649591 4.010138,-0.05033 0.575444,0.28912 0.746939,0.509065 0.746939,0.957964 0,0.249671 -0.05864,0.397564 -0.227507,0.573828 -0.297793,0.31083 -0.692349,0.31237 -1.349761,0.0053 -1.073989,-0.501701 -2.305475,-0.202277 -2.865589,0.696741 -0.199259,0.319823 -0.258629,0.524095 -0.284284,0.978121 -0.07327,1.296607 0.625145,2.116982 1.91722,2.252031 0.419303,0.04383 0.579457,0.01406 1.147033,-0.213212 0.820967,-0.328731 1.112719,-0.336231 1.425422,-0.03664 0.185984,0.178184 0.237466,0.304197 0.237466,0.581248 0,0.483593 -0.204879,0.712585 -0.946673,1.058094 -0.576659,0.268593 -0.687225,0.290198 -1.593326,0.311332 -0.769366,0.01794 -1.07497,-0.01059 -1.456462,-0.135991 z m 2.880503,-0.430929 c 0.633772,-0.293593 0.861958,-0.505152 0.861958,-0.799144 0,-0.188461 -0.31396,-0.558118 -0.474028,-0.558118 -0.05821,0 -0.403368,0.119135 -0.767009,0.264744 -0.59496,0.238233 -0.725121,0.260359 -1.299871,0.220965 -1.451235,-0.09947 -2.223364,-0.913734 -2.222172,-2.343436 8.46e-4,-1.016882 0.342977,-1.644744 1.133399,-2.07997 0.407991,-0.22465 0.53293,-0.25051 1.216682,-0.251831 0.656168,-0.0013 0.831035,0.03087 1.259064,0.231362 0.599695,0.280907 0.705139,0.286271 0.957979,0.04874 0.381419,-0.358325 0.220386,-0.732131 -0.463398,-1.075694 -1.918283,-0.963824 -4.226792,-0.246215 -5.082734,1.579991 -0.208182,0.444169 -0.226911,0.571485 -0.226911,1.542463 0,0.969054 0.019,1.098867 0.225248,1.538829 0.269793,0.575518 0.8136,1.186996 1.319087,1.483231 0.682462,0.399949 1.256067,0.536625 2.138665,0.509587 0.706999,-0.02166 0.879325,-0.05938 1.424041,-0.311719 z m 3.994625,0.435664 c -0.620212,-0.205066 -1.083955,-0.50877 -1.501925,-0.983609 -0.68843,-0.782097 -0.907222,-1.54603 -0.852468,-2.976478 0.03417,-0.892705 0.05633,-0.99321 0.350115,-1.587634 0.636,-1.286861 1.72965,-1.917871 3.324,-1.917871 1.118877,0 1.977897,0.326223 2.662965,1.01129 0.703311,0.703311 1.012646,1.55824 1.012646,2.79871 0,1.687017 -0.624458,2.804329 -1.927219,3.448275 -0.621798,0.307351 -0.683032,0.320181 -1.624303,0.340337 -0.761282,0.0163 -1.081386,-0.01319 -1.443811,-0.13302 z m 2.933186,-0.483372 c 1.117095,-0.570412 1.695962,-1.502967 1.785158,-2.875887 0.161011,-2.478344 -1.585406,-4.145806 -3.976328,-3.796558 -1.184923,0.173085 -1.977877,0.736577 -2.487462,1.76765 -0.271884,0.550121 -0.314962,0.723908 -0.351208,1.416857 -0.06355,1.214984 0.173846,2.034901 0.801488,2.76816 0.667776,0.780145 1.522782,1.11581 2.750358,1.079755 0.765876,-0.02249 0.863753,-0.04633 1.477994,-0.359977 z m -2.48654,-0.941578 c -0.47647,-0.168717 -1.071252,-0.831078 -1.197887,-1.333992 -0.135287,-0.537273 -0.118202,-1.476972 0.03503,-1.926681 0.45099,-1.323584 2.332241,-1.791155 3.429107,-0.852278 0.483198,0.4136 0.683233,0.855399 0.736023,1.625588 0.08084,1.179392 -0.336825,2.02423 -1.199252,2.425816 -0.504353,0.23485 -1.242443,0.260046 -1.80302,0.06155 z m 1.643808,-0.320236 c 1.286899,-0.599171 1.520229,-2.664232 0.404906,-3.583575 -0.750915,-0.618969 -1.805097,-0.566721 -2.513374,0.124569 -0.751884,0.733852 -0.778767,2.201167 -0.05538,3.022973 0.561449,0.63784 1.377309,0.802242 2.163852,0.436033 z M 6.59984,21.471172 6.372333,21.233705 v -4.742026 -4.742026 l 0.2374661,-0.227507 c 0.1943442,-0.186194 0.315976,-0.227507 0.669807,-0.227507 0.3788352,0 0.4594678,0.03224 0.6515338,0.260496 l 0.219193,0.260496 v 4.699016 4.699017 l -0.2474872,0.247487 c -0.2060549,0.206055 -0.3167965,0.247487 -0.661493,0.247487 -0.3430789,0 -0.4529818,-0.04068 -0.6415127,-0.237466 z m 1.0886749,-0.224352 0.207818,-0.207818 v -4.522098 c 0,-4.446681 -0.00293,-4.525816 -0.1754785,-4.745181 C 7.4989118,11.489569 7.0995699,11.47224 6.8222897,11.73273 L 6.626333,11.916823 v 4.57295 4.572952 l 0.1840917,0.195956 c 0.2440406,0.25977 0.6114222,0.254806 0.8780902,-0.01186 z m 2.2333053,0.214331 -0.2474873,-0.247487 v -3.253816 -3.253816 l 0.2076238,-0.22403 c 0.1768393,-0.190813 0.2778403,-0.22403 0.6811823,-0.22403 0.389901,0 0.51027,0.03671 0.681376,0.207819 l 0.207818,0.207817 v 3.298322 3.298322 l -0.260496,0.219193 c -0.381053,0.320635 -0.933393,0.308329 -1.2700168,-0.02829 z M 10.975248,21.27916 11.198333,21.103681 V 17.97716 c 0,-3.013633 -0.0061,-3.132636 -0.169333,-3.295855 -0.232826,-0.232825 -0.7038,-0.224724 -0.928035,0.01596 -0.1671682,0.179433 -0.1726321,0.282725 -0.1726321,3.263515 v 3.078217 l 0.2078181,0.207818 c 0.253974,0.253974 0.543165,0.26512 0.839097,0.03234 z M 9.8371535,13.163818 C 9.6217544,12.948419 9.5896663,12.854026 9.5896663,12.435787 c 0,-0.428402 0.028532,-0.507196 0.262954,-0.726179 0.2226967,-0.20803 0.3326707,-0.245636 0.7183307,-0.245636 0.382363,0 0.499226,0.03918 0.728856,0.244353 0.246387,0.220147 0.273478,0.2912 0.273478,0.717264 0,0.406523 -0.03448,0.508903 -0.24565,0.729313 -0.219012,0.2286 -0.299724,0.256403 -0.744322,0.256403 -0.438275,0 -0.528647,-0.02998 -0.7461595,-0.247487 z m 1.2702205,-0.211482 c 0.279027,-0.29701 0.263849,-0.786219 -0.0323,-1.040952 -0.486222,-0.418231 -1.2314118,-0.09989 -1.2314118,0.52606 0,0.648134 0.8233688,0.983612 1.2637078,0.514892 z"
       id="path237" />
  </g>
</svg>
